<svg width="172" height="24" viewBox="0 0 172 24" fill="none" xmlns="http://www.w3.org/2000/svg">
<path d="M0.655273 14.5635V14.123H4.52246V14.4453C4.52246 15.1328 4.73372 15.6484 5.15625 15.9922C5.57878 16.3359 6.1696 16.5078 6.92871 16.5078C7.68066 16.5078 8.25716 16.3574 8.6582 16.0566C9.05924 15.7487 9.25977 15.3405 9.25977 14.832C9.25977 14.2806 9.06283 13.8581 8.66895 13.5645C8.28223 13.2708 7.3763 12.9414 5.95117 12.5762C4.32552 12.1536 3.07227 11.5628 2.19141 10.8037C1.31055 10.0446 0.866536 9.01335 0.859375 7.70996C0.859375 6.27051 1.40365 5.139 2.49219 4.31543C3.58073 3.4847 5.02734 3.06934 6.83203 3.06934C8.62956 3.06934 10.0762 3.4847 11.1719 4.31543C12.2747 5.14616 12.8262 6.27767 12.8262 7.70996V8.09668H9.03418V7.81738C9.03418 7.23014 8.85156 6.76107 8.48633 6.41016C8.12109 6.05924 7.5804 5.88379 6.86426 5.88379C6.14095 5.88379 5.60742 6.01986 5.26367 6.29199C4.92708 6.56413 4.75879 6.92936 4.75879 7.3877C4.75879 7.85319 4.95215 8.2041 5.33887 8.44043C5.72559 8.67676 6.63867 8.9847 8.07812 9.36426C9.65365 9.79395 10.889 10.3919 11.7842 11.1582C12.6865 11.9245 13.1377 13.0309 13.1377 14.4775C13.1377 16.0316 12.5684 17.224 11.4297 18.0547C10.2982 18.8854 8.80501 19.3008 6.9502 19.3008C5.1097 19.3008 3.59863 18.9033 2.41699 18.1084C1.24251 17.3063 0.655273 16.1247 0.655273 14.5635ZM14.8564 14.6816V7.9248H18.6162V14.6494C18.6162 15.3298 18.7487 15.7988 19.0137 16.0566C19.2858 16.3145 19.6439 16.4434 20.0879 16.4434C20.5033 16.4434 20.8721 16.318 21.1943 16.0674C21.5238 15.8167 21.7673 15.5088 21.9248 15.1436V7.9248H25.6846V19H22.0537L22 17.7646H21.9463C21.6598 18.2087 21.2301 18.5667 20.6572 18.8389C20.0843 19.1038 19.429 19.2363 18.6914 19.2363C17.5814 19.2363 16.6647 18.8854 15.9414 18.1836C15.2181 17.4818 14.8564 16.3145 14.8564 14.6816ZM28.1445 23.4902V7.9248H31.7217L31.7646 9.12793H31.8184C32.0475 8.7054 32.445 8.36165 33.0107 8.09668C33.5837 7.82454 34.2139 7.68848 34.9014 7.68848C36.3337 7.68848 37.4902 8.1862 38.3711 9.18164C39.2591 10.1771 39.7031 11.5413 39.7031 13.2744V13.6182C39.7031 15.3369 39.2663 16.7012 38.3926 17.7109C37.526 18.7135 36.3981 19.2148 35.0088 19.2148C34.3213 19.2148 33.6982 19.1074 33.1396 18.8926C32.5882 18.6706 32.1764 18.359 31.9043 17.958V23.4902H28.1445ZM31.9043 15.1221C32.0404 15.4945 32.2874 15.8167 32.6455 16.0889C33.0107 16.361 33.4297 16.4971 33.9023 16.4971C34.5612 16.4971 35.0553 16.2751 35.3848 15.8311C35.7142 15.3799 35.8789 14.7174 35.8789 13.8438V13.0703C35.8789 12.1966 35.7142 11.5378 35.3848 11.0938C35.0553 10.6497 34.5576 10.4277 33.8916 10.4277C33.3831 10.4277 32.9606 10.5602 32.624 10.8252C32.2946 11.083 32.0547 11.391 31.9043 11.749V15.1221ZM41.0352 13.6182V13.2744C41.0352 11.5485 41.5794 10.1735 42.668 9.14941C43.7637 8.11816 45.1637 7.60254 46.8682 7.60254C48.5726 7.60254 49.9118 8.08952 50.8857 9.06348C51.8597 10.0374 52.3467 11.3838 52.3467 13.1025V14.2949H43.5059V12.2861H48.6621V12.0713C48.6621 11.5413 48.5046 11.1009 48.1895 10.75C47.8743 10.3919 47.4196 10.2129 46.8252 10.2129C46.1592 10.2129 45.6471 10.46 45.2891 10.9541C44.9382 11.4411 44.7627 12.1322 44.7627 13.0273V13.8115C44.7627 14.7139 44.9561 15.4121 45.3428 15.9062C45.7295 16.3932 46.2845 16.6367 47.0078 16.6367C47.5449 16.6367 48.0068 16.5007 48.3936 16.2285C48.7874 15.9564 49.1025 15.6413 49.3389 15.2832L52.1426 16.7549C51.7845 17.5426 51.165 18.1693 50.2842 18.6348C49.4033 19.0931 48.3363 19.3223 47.083 19.3223C45.2139 19.3223 43.7386 18.8066 42.6572 17.7754C41.5758 16.7441 41.0352 15.3584 41.0352 13.6182ZM54.0977 19V7.9248H57.75L57.8037 9.12793H57.8574C58.0723 8.71973 58.3766 8.3724 58.7705 8.08594C59.1644 7.79232 59.5941 7.64551 60.0596 7.64551C60.2243 7.64551 60.3854 7.66341 60.543 7.69922C60.7005 7.73503 60.8115 7.76725 60.876 7.7959V10.8896C60.7542 10.8467 60.6182 10.818 60.4678 10.8037C60.3174 10.7822 60.1527 10.7715 59.9736 10.7715C59.5368 10.7715 59.125 10.9111 58.7383 11.1904C58.3516 11.4626 58.0687 11.8171 57.8896 12.2539V19H54.0977Z" fill="black"/>
<path d="M61.4238 6.29199V3.35938H74.1641V6.29199H69.749V19H65.8496V6.29199H61.4238ZM73.7129 15.7559C73.7129 14.5026 74.1927 13.5645 75.1523 12.9414C76.112 12.3184 77.3294 12.0033 78.8047 11.9961H80.9746V11.4268C80.9746 10.9899 80.8636 10.6426 80.6416 10.3848C80.4196 10.1198 80.0329 9.9873 79.4814 9.9873C78.9229 9.9873 78.5254 10.0947 78.2891 10.3096C78.0527 10.5244 77.9346 10.8037 77.9346 11.1475V11.3516H74.3037V11.1367C74.3037 10.0911 74.8014 9.24251 75.7969 8.59082C76.7923 7.93913 78.085 7.61328 79.6748 7.61328C81.2718 7.61328 82.5143 7.9248 83.4023 8.54785C84.2904 9.1709 84.7344 10.1484 84.7344 11.4805V16.54C84.7344 16.984 84.7738 17.4102 84.8525 17.8184C84.9385 18.2194 85.0566 18.556 85.207 18.8281V19H81.4902C81.4043 18.8353 81.3291 18.6276 81.2646 18.377C81.2074 18.1191 81.1644 17.8685 81.1357 17.625C80.9281 18.026 80.5091 18.3877 79.8789 18.71C79.2559 19.0322 78.486 19.1934 77.5693 19.1934C76.4521 19.1934 75.5283 18.9105 74.7979 18.3447C74.0745 17.779 73.7129 16.916 73.7129 15.7559ZM77.4619 15.4121C77.4619 15.8418 77.5837 16.1891 77.8271 16.4541C78.0778 16.7191 78.4681 16.8516 78.998 16.8516C79.5853 16.8516 80.0615 16.6689 80.4268 16.3037C80.792 15.9313 80.9746 15.473 80.9746 14.9287V14.0693H79.5137C78.8047 14.0693 78.2855 14.1839 77.9561 14.4131C77.6266 14.6351 77.4619 14.9681 77.4619 15.4121ZM87.2695 19V7.9248H90.9219L90.9756 9.12793H91.0293C91.2441 8.71973 91.5485 8.3724 91.9424 8.08594C92.3363 7.79232 92.766 7.64551 93.2314 7.64551C93.3962 7.64551 93.5573 7.66341 93.7148 7.69922C93.8724 7.73503 93.9834 7.76725 94.0479 7.7959V10.8896C93.9261 10.8467 93.79 10.818 93.6396 10.8037C93.4893 10.7822 93.3245 10.7715 93.1455 10.7715C92.7087 10.7715 92.2969 10.9111 91.9102 11.1904C91.5234 11.4626 91.2406 11.8171 91.0615 12.2539V19H87.2695ZM95.5732 22.2549L96.873 19.999C97.1309 20.2354 97.5677 20.4681 98.1836 20.6973C98.7995 20.9336 99.4619 21.0518 100.171 21.0518C100.894 21.0518 101.492 20.8298 101.965 20.3857C102.438 19.9489 102.674 19.2507 102.674 18.291V17.8398C102.402 18.2695 102.008 18.6025 101.492 18.8389C100.977 19.0752 100.354 19.1934 99.623 19.1934C98.2051 19.1934 97.0557 18.6921 96.1748 17.6895C95.2939 16.6797 94.8535 15.3298 94.8535 13.6396V13.2959C94.8535 11.5986 95.2868 10.2451 96.1533 9.23535C97.0199 8.21842 98.1729 7.70996 99.6123 7.70996C100.293 7.70996 100.912 7.84961 101.471 8.12891C102.036 8.40104 102.434 8.75195 102.663 9.18164H102.717L102.771 7.9248H106.401V18.0332C106.401 19.8594 105.846 21.263 104.736 22.2441C103.626 23.2253 102.219 23.7158 100.515 23.7158C99.4691 23.7158 98.5202 23.5762 97.668 23.2969C96.8229 23.0176 96.1247 22.6702 95.5732 22.2549ZM98.667 13.79C98.667 14.6136 98.8424 15.2689 99.1934 15.7559C99.5443 16.2428 100.074 16.4863 100.783 16.4863C101.242 16.4863 101.632 16.3503 101.954 16.0781C102.284 15.7988 102.516 15.4837 102.652 15.1328V11.8672C102.502 11.4303 102.262 11.083 101.933 10.8252C101.603 10.5602 101.199 10.4277 100.719 10.4277C100.046 10.4277 99.5335 10.6748 99.1826 11.1689C98.8389 11.6631 98.667 12.3184 98.667 13.1348V13.79ZM108.281 13.6182V13.2744C108.281 11.5485 108.826 10.1735 109.914 9.14941C111.01 8.11816 112.41 7.60254 114.114 7.60254C115.819 7.60254 117.158 8.08952 118.132 9.06348C119.106 10.0374 119.593 11.3838 119.593 13.1025V14.2949H110.752V12.2861H115.908V12.0713C115.908 11.5413 115.751 11.1009 115.436 10.75C115.12 10.3919 114.666 10.2129 114.071 10.2129C113.405 10.2129 112.893 10.46 112.535 10.9541C112.184 11.4411 112.009 12.1322 112.009 13.0273V13.8115C112.009 14.7139 112.202 15.4121 112.589 15.9062C112.976 16.3932 113.531 16.6367 114.254 16.6367C114.791 16.6367 115.253 16.5007 115.64 16.2285C116.034 15.9564 116.349 15.6413 116.585 15.2832L119.389 16.7549C119.031 17.5426 118.411 18.1693 117.53 18.6348C116.649 19.0931 115.582 19.3223 114.329 19.3223C112.46 19.3223 110.985 18.8066 109.903 17.7754C108.822 16.7441 108.281 15.3584 108.281 13.6182ZM120.721 15.4229L124.319 15.4443V15.6484C124.319 16.1211 124.47 16.4577 124.771 16.6582C125.078 16.8587 125.501 16.959 126.038 16.959C126.568 16.959 126.962 16.8659 127.22 16.6797C127.485 16.4863 127.617 16.2249 127.617 15.8955C127.617 15.5661 127.463 15.3262 127.155 15.1758C126.847 15.0182 126.085 14.8213 124.867 14.585C123.499 14.32 122.522 13.901 121.935 13.3281C121.347 12.7552 121.054 12.0212 121.054 11.126C121.054 10.0088 121.505 9.14225 122.407 8.52637C123.317 7.90332 124.549 7.5918 126.103 7.5918C127.642 7.5918 128.87 7.91764 129.787 8.56934C130.704 9.22103 131.159 10.1126 131.151 11.2441V11.4053H127.574V11.2012C127.574 10.8145 127.449 10.5173 127.198 10.3096C126.955 10.1019 126.579 9.99805 126.07 9.99805C125.576 9.99805 125.218 10.0768 124.996 10.2344C124.781 10.3919 124.674 10.6104 124.674 10.8896C124.674 11.1689 124.824 11.3945 125.125 11.5664C125.426 11.7311 126.192 11.9281 127.424 12.1572C128.785 12.415 129.773 12.8161 130.389 13.3604C131.012 13.9046 131.323 14.6494 131.323 15.5947C131.323 16.7907 130.872 17.7109 129.97 18.3555C129.075 18.9928 127.775 19.3115 126.07 19.3115C124.387 19.3115 123.077 18.9928 122.139 18.3555C121.201 17.7109 120.728 16.7835 120.721 15.5732V15.4229ZM132.054 10.6211V7.9248H139.348V10.6211H132.054ZM133.611 15.498V9.08496L133.633 8.80566V5.20703H137.339V15.1973C137.339 15.7487 137.428 16.1175 137.607 16.3037C137.794 16.4899 138.048 16.583 138.37 16.583C138.535 16.583 138.696 16.5651 138.854 16.5293C139.011 16.4935 139.161 16.4469 139.305 16.3896V18.9678C139.133 19.0537 138.875 19.1289 138.531 19.1934C138.195 19.265 137.812 19.3008 137.382 19.3008C136.229 19.3008 135.312 18.9964 134.632 18.3877C133.951 17.7718 133.611 16.8086 133.611 15.498Z" fill="#4690FF"/>
<g clip-path="url(#clip0_48_669)">
<path fill-rule="evenodd" clip-rule="evenodd" d="M166.403 1.8648C164.55 0.693518 162.354 0.0155945 160 0.0155945C153.373 0.0155945 148 5.38818 148 12.0156C148 16.3858 150.336 20.2104 153.828 22.3086L155.564 20.8312C152.343 19.207 150.133 15.8693 150.133 12.0156C150.133 6.56639 154.551 2.14893 160 2.14893C161.36 2.14893 162.656 2.42414 163.835 2.92192L164.195 2.80328L166.403 1.8648ZM153.21 9.61448C152.945 10.3655 152.8 11.1737 152.8 12.0156C152.8 15.2421 154.922 17.9729 157.847 18.8882L159.969 17.0822C157.185 17.0656 154.933 14.8036 154.933 12.0156C154.933 11.6404 154.974 11.2748 155.051 10.9228L153.21 9.61448ZM162.813 7.80092L164.608 6.48288C166.192 7.80361 167.2 9.79187 167.2 12.0156C167.2 12.9724 167.013 13.8857 166.674 14.7209L164.872 13.4102C164.999 12.9672 165.067 12.4993 165.067 12.0156C165.067 10.2581 164.172 8.70967 162.813 7.80092ZM157.088 12.3697C157.263 13.8228 158.5 14.9489 160 14.9489C160.214 14.9489 160.423 14.926 160.624 14.8824L157.088 12.3697ZM162.933 12L160 9.86673L160.884 9.21773C162.067 9.59119 162.927 10.6948 162.933 12ZM160.465 21.8715C165.698 21.6289 169.867 17.309 169.867 12.0156C169.867 9.20411 168.691 6.66727 166.804 4.87009L168.546 3.59104C170.682 5.75765 172 8.73267 172 12.0156C172 18.643 166.627 24.0156 160 24.0156C159.187 24.0156 158.393 23.9348 157.625 23.7807L160.465 21.8715Z" fill="#4690FF"/>
<path fill-rule="evenodd" clip-rule="evenodd" d="M177.067 -2.66666L158.544 8.82464L168.457 15.8681L149.333 26.1335L161.676 15.6297L151.323 8.27323L177.067 -2.66666Z" fill="url(#paint0_linear_48_669)"/>
</g>
<defs>
<linearGradient id="paint0_linear_48_669" x1="168.478" y1="1.61556" x2="146.344" y2="13.6156" gradientUnits="userSpaceOnUse">
<stop offset="0.0208333" stop-opacity="0"/>
<stop offset="0.270833"/>
<stop offset="0.526042"/>
<stop offset="0.651042"/>
<stop offset="0.958333" stop-opacity="0"/>
</linearGradient>
<clipPath id="clip0_48_669">
<rect width="24" height="24" fill="white" transform="translate(148)"/>
</clipPath>
</defs>
</svg>
